<?xml version="1.0" encoding="UTF-8" standalone="no"?>
<!-- Created with Inkscape (http://www.inkscape.org/) -->

<svg
   xmlns:dc="http://purl.org/dc/elements/1.1/"
   xmlns:cc="http://creativecommons.org/ns#"
   xmlns:rdf="http://www.w3.org/1999/02/22-rdf-syntax-ns#"
   xmlns:svg="http://www.w3.org/2000/svg"
   xmlns="http://www.w3.org/2000/svg"
   xmlns:sodipodi="http://sodipodi.sourceforge.net/DTD/sodipodi-0.dtd"
   xmlns:inkscape="http://www.inkscape.org/namespaces/inkscape"
   sodipodi:docname="bang.svg"
   inkscape:version="0.91 r13725"
   id="svg3351"
   height="215.29666"
   width="256"
   version="1.1">
  <sodipodi:namedview
     inkscape:current-layer="svg3351"
     inkscape:window-maximized="1"
     inkscape:window-y="-8"
     inkscape:window-x="-8"
     fit-margin-bottom="0"
     fit-margin-right="0"
     fit-margin-left="0"
     fit-margin-top="0"
     showgrid="false"
     id="namedview37"
     inkscape:window-height="1137"
     inkscape:window-width="1920"
     inkscape:pageshadow="2"
     inkscape:pageopacity="0"
     guidetolerance="10"
     gridtolerance="10"
     objecttolerance="10"
     borderopacity="1"
     bordercolor="#666666"
     pagecolor="#ffffff" />
  <defs
     id="defs3353" />
  <metadata
     id="metadata3356">
    <rdf:RDF>
      <cc:Work
         rdf:about="">
        <dc:format>image/svg+xml</dc:format>
        <dc:type
           rdf:resource="http://purl.org/dc/dcmitype/StillImage" />
        <dc:title></dc:title>
      </cc:Work>
    </rdf:RDF>
  </metadata>
  <g
     id="g6015">
    <path
       style="opacity:1;fill:#ff8060;fill-opacity:1;stroke:none;stroke-width:3;stroke-linecap:round;stroke-linejoin:miter;stroke-miterlimit:4;stroke-dasharray:none;stroke-dashoffset:0;stroke-opacity:1"
       inkscape:transform-center-x="7.5921152"
       inkscape:transform-center-y="-1.3011734"
       d="m 107.50778,68.719825 c 0,0 -55.719696,-29.189255 -74.848566,-22.461251 -19.128885,6.728015 -7.022784,65.138146 -7.022784,65.138146 0,0 -14.233052,-61.087075 -31.7861767,-67.03964 -17.5531283,-5.952566 -86.9706323,66.72857 -87.5022563,67.33789 0,0 60.164085,-66.859094 52.854392,-84.14387 -7.309679,-17.284782 -65.982049,-9.097231 -65.982049,-9.097231 0,0 54.834556,-10.0371022 58.026922,-19.29277477 3.192366,-9.25567223 -24.697235,-25.92719123 -24.697235,-25.92719123 0,0 33.429321,16.488354 42.853067,7.12387 9.423747,-9.364492 -4.3929,-70.393841 -4.3929,-70.393841 0,0 24.901274,57.764464 42.1005131,55.526917 17.1992399,-2.237547 60.2313339,-69.092539 60.2313339,-69.092539 0,0 -40.100054,71.77188 -26.971127,86.043143 13.128943,14.2712605 108.849436,-17.136497 108.849436,-17.136497 0,0 -92.94232,30.2757764 -97.25283,48.176272 -4.310511,17.900496 55.54026,55.238597 55.54026,55.238597 z"
       id="path4217"
       inkscape:connector-curvature="0"
       sodipodi:nodetypes="czczczczczczczczc" />
    <path
       inkscape:connector-curvature="0"
       id="path5396"
       d="m -18.132039,-38.611955 c 1.633263,13.673627 -4.319225,32.0958537 -18.368188,32.0627869 -5.678355,-1.2440209 -1.408736,7.46701945 -4.63866,11.1015285 -0.595311,3.416857 -7.295174,6.2397166 -1.725823,7.4406026 10.003537,5.209886 14.852386,19.648942 9.457924,30.926167 -1.21172,3.721428 5.256721,-3.028975 7.664019,-3.548956 10.247569,-6.353891 24.3017938,-8.290069 32.8229644,2.605731 3.2938526,3.057972 6.0989436,8.937785 8.2708636,11.610473 4.096169,-13.583624 17.031125,-21.868147 29.270693,-18.447135 2.217298,-0.373275 9.497451,2.895618 5.085667,-1.380905 C 41.624526,24.498737 40.238387,7.509666 50.181056,-0.71340128 54.047804,-3.3591562 52.894664,-3.6460879 49.133131,-3.6380709 37.790122,-3.7829847 27.182771,-14.643119 28.586219,-28.199183 c -0.0294,-3.330776 0.91173,-7.567237 1.234424,-10.114206 -9.414744,11.107304 -25.4909738,19.497787 -37.5859653,8.645091 -4.0283147,-3.097892 -7.4224147,-7.143075 -10.5088067,-11.400103 l 0.100335,1.733354 0.04183,0.723092 z"
       style="opacity:1;fill:#ffc050;fill-opacity:1;stroke:none;stroke-width:3;stroke-linecap:round;stroke-linejoin:miter;stroke-miterlimit:4;stroke-dasharray:none;stroke-dashoffset:0;stroke-opacity:1" />
    <path
       inkscape:connector-curvature="0"
       id="path5404"
       d="m -10.749228,-18.878922 c -3.084198,11.0925618 -11.923652,18.88584044 -20.478833,23.3464604 -3.029875,4.9865674 4.475047,6.9064716 5.204068,11.8547496 2.83607,3.03322 1.240243,12.934124 6.749317,8.841865 11.8311078,-3.421018 25.7166093,-0.145349 34.021847,10.239736 5.24355,-6.445986 13.47187,-9.410742 20.070322,-11.674926 C 32.719642,16.953572 35.680647,8.4369613 35.228972,2.8627028 28.113826,-1.4116747 22.462615,-8.992617 20.270962,-17.894985 c -9.785876,4.931913 -21.7091767,4.601337 -31.02019,-0.983937 z"
       style="opacity:1;fill:#ffff40;fill-opacity:1;stroke:none;stroke-width:3;stroke-linecap:round;stroke-linejoin:miter;stroke-miterlimit:4;stroke-dasharray:none;stroke-dashoffset:0;stroke-opacity:1" />
    <path
       inkscape:connector-curvature="0"
       id="path6003"
       d="m -5.5996094,-5.6484375 c -3.1061013,5.71246139 -8.9108886,9.8509577 -12.7890626,14.4335937 1.55504,1.9704288 1.514136,6.5376578 4.914063,5.1640628 10.1224972,-1.152667 20.3486321,2.823059 28.689453,7.572265 3.453925,-2.327558 9.844321,-2.651776 9.240234,-8.136718 1.177737,-3.346077 0.64461,-7.1428883 -2.8125,-8.7148441 C 18.782523,1.6935226 16.345401,-1.6903496 14.431641,-5.3476562 7.859067,-3.7591685 0.65297073,-4.5425158 -5.5996094,-5.6484375 Z"
       style="opacity:1;fill:#ffffe1;fill-opacity:1;stroke:none;stroke-width:3;stroke-linecap:round;stroke-linejoin:miter;stroke-miterlimit:4;stroke-dasharray:none;stroke-dashoffset:0;stroke-opacity:1" />
  </g>
</svg>
