<?xml version="1.0" encoding="UTF-8" standalone="no"?>
<!-- Created with Inkscape (http://www.inkscape.org/) -->

<svg
   xmlns:dc="http://purl.org/dc/elements/1.1/"
   xmlns:cc="http://creativecommons.org/ns#"
   xmlns:rdf="http://www.w3.org/1999/02/22-rdf-syntax-ns#"
   xmlns:svg="http://www.w3.org/2000/svg"
   xmlns="http://www.w3.org/2000/svg"
   xmlns:sodipodi="http://sodipodi.sourceforge.net/DTD/sodipodi-0.dtd"
   xmlns:inkscape="http://www.inkscape.org/namespaces/inkscape"
   width="110.04726mm"
   height="94.32946mm"
   viewBox="0 0 389.93122 334.23824"
   id="svg2"
   version="1.1"
   inkscape:version="0.91 r13725"
   sodipodi:docname="boatY.svg">
  <defs
     id="defs4">
    <clipPath
       clipPathUnits="userSpaceOnUse"
       id="clipPath4497">
      <path
         id="path4499"
         d="m 358.79745,100.71129 -37.93555,187.14453 60,22.85547 -65.71484,60 61.42773,68.57226 -28.75585,45.71484 224.4707,0 0,-384.2871 -213.49219,0 z"
         style="opacity:0.44100001;fill:#ffd5d5;fill-opacity:1;stroke:none;stroke-width:3;stroke-linecap:round;stroke-linejoin:miter;stroke-miterlimit:4;stroke-dasharray:none;stroke-dashoffset:0;stroke-opacity:1"
         inkscape:connector-curvature="0" />
    </clipPath>
    <clipPath
       clipPathUnits="userSpaceOnUse"
       id="clipPath4561">
      <path
         inkscape:connector-curvature="0"
         style="opacity:0.44100001;fill:#ffd5d5;fill-opacity:1;stroke:none;stroke-width:3;stroke-linecap:round;stroke-linejoin:miter;stroke-miterlimit:4;stroke-dasharray:none;stroke-dashoffset:0;stroke-opacity:1"
         d="m 362.83806,99.70113 -37.93555,187.14453 60,22.85547 -65.71484,60 61.42773,68.57226 -28.75585,45.71484 224.4707,0 0,-384.2871 -213.49219,0 z"
         id="path4563" />
    </clipPath>
  </defs>
  <sodipodi:namedview
     id="base"
     pagecolor="#ffffff"
     bordercolor="#666666"
     borderopacity="1.0"
     inkscape:pageopacity="0.0"
     inkscape:pageshadow="2"
     inkscape:zoom="0.35"
     inkscape:cx="375"
     inkscape:cy="520"
     inkscape:document-units="px"
     inkscape:current-layer="layer1"
     showgrid="false"
     inkscape:window-width="1600"
     inkscape:window-height="837"
     inkscape:window-x="-8"
     inkscape:window-y="-8"
     inkscape:window-maximized="1"
     fit-margin-top="0"
     fit-margin-left="0"
     fit-margin-right="0"
     fit-margin-bottom="0" />
  <metadata
     id="metadata7">
    <rdf:RDF>
      <cc:Work
         rdf:about="">
        <dc:format>image/svg+xml</dc:format>
        <dc:type
           rdf:resource="http://purl.org/dc/dcmitype/StillImage" />
        <dc:title />
      </cc:Work>
    </rdf:RDF>
  </metadata>
  <g
     inkscape:label="Layer 1"
     inkscape:groupmode="layer"
     id="layer1"
     transform="translate(-168.68065,-124.15766)">
    <g
       id="g4281">
      <path
         sodipodi:nodetypes="ccccc"
         inkscape:connector-curvature="0"
         id="path4200"
         d="m 172.3612,-95.590309 c 16.82973,1.854969 30.95987,6.444075 33.9015,12.340808 l 9.08688,105.059287 -48.44983,1.380982 z"
         style="fill:#6f6d69;fill-opacity:1;fill-rule:evenodd;stroke:#000000;stroke-width:3;stroke-linecap:butt;stroke-linejoin:miter;stroke-miterlimit:4;stroke-dasharray:none;stroke-opacity:1" />
      <path
         sodipodi:nodetypes="cccccc"
         inkscape:connector-curvature="0"
         id="path4212"
         d="m 192.76604,-20.767758 -2.84423,-64.214076 c 0.42533,-3.521075 2.88043,-4.01625 4.9124,-5.142214 l 11.23558,7.037528 5.74958,65.891964 z"
         style="fill:#4d4c49;fill-opacity:1;fill-rule:evenodd;stroke:none;stroke-width:1px;stroke-linecap:butt;stroke-linejoin:miter;stroke-opacity:1" />
      <path
         sodipodi:nodetypes="sccs"
         inkscape:connector-curvature="0"
         id="path4202"
         d="m 188.58966,-86.490189 c 0,1.57995 -6.71029,2.951535 -16.54859,3.638499 l 0.0863,-7.270948 c 9.79122,0.688945 16.46228,2.057123 16.46228,3.632449 z"
         style="opacity:1;fill:#000000;fill-opacity:1;stroke:none;stroke-width:3;stroke-linecap:round;stroke-linejoin:round;stroke-miterlimit:4;stroke-dasharray:none;stroke-dashoffset:0;stroke-opacity:1"
         transform="matrix(0.99999024,-0.00441706,0.00441706,0.99999024,0,0)" />
      <path
         style="fill:none;fill-opacity:1;fill-rule:evenodd;stroke:#000000;stroke-width:3;stroke-linecap:butt;stroke-linejoin:miter;stroke-miterlimit:4;stroke-dasharray:none;stroke-opacity:1"
         d="m 165.74437,25.076418 5.63166,-120.771868 c 17.26092,1.782061 31.88781,6.434507 34.88667,12.445949 l 9.08688,105.059287 z"
         id="path4226"
         inkscape:connector-curvature="0"
         sodipodi:nodetypes="ccccc" />
      <path
         sodipodi:nodetypes="ccccccc"
         inkscape:connector-curvature="0"
         id="path4181"
         d="M 166.49527,-1.5948003 270.11429,0.08878849 271.17253,102.40723 171.4629,101.06835 189.87685,79.105478 163.61773,49.469898 Z"
         style="fill:#dbdce1;fill-opacity:1;fill-rule:evenodd;stroke:#000000;stroke-width:3;stroke-linecap:butt;stroke-linejoin:miter;stroke-miterlimit:4;stroke-dasharray:none;stroke-opacity:1" />
      <rect
         transform="matrix(0.99994985,-0.01001504,0.01001504,0.99994985,0,0)"
         ry="6.0906215"
         y="23.489887"
         x="195.95464"
         height="87.418335"
         width="49.918331"
         id="rect4185"
         style="opacity:1;fill:#966a4c;fill-opacity:1;stroke:#000000;stroke-width:3;stroke-linecap:round;stroke-linejoin:round;stroke-miterlimit:4;stroke-dasharray:none;stroke-dashoffset:0;stroke-opacity:1" />
      <g
         transform="matrix(0.99648401,0.08378322,-0.08378322,0.99648401,-164.86718,-251.58374)"
         id="g4236">
        <path
           style="fill:#cfcbc8;fill-opacity:1;fill-rule:evenodd;stroke:#000000;stroke-width:3;stroke-linecap:butt;stroke-linejoin:miter;stroke-miterlimit:4;stroke-dasharray:none;stroke-opacity:1"
           d="m 455.17331,217.8826 c 17.06575,-0.15341 13.08051,-26.70946 5.36241,-27.75254 l -109.63423,10.7703 0.55792,25.85095 z"
           id="path4183"
           inkscape:connector-curvature="0"
           sodipodi:nodetypes="ccccc" />
        <path
           style="fill:#908e8c;fill-opacity:1;fill-rule:evenodd;stroke:none;stroke-width:1px;stroke-linecap:butt;stroke-linejoin:miter;stroke-opacity:1"
           d="m 352.07094,221.26708 104.89335,-9.79773 c 4.91751,-1.85446 7.55731,-5.607 9.64285,-9.82143 0.56545,11.00179 -3.73868,14.03636 -11.60714,17.14285 l -102.62312,8.18011 z"
           id="path4214"
           inkscape:connector-curvature="0"
           sodipodi:nodetypes="cccccc" />
        <path
           style="fill:#ffffff;fill-opacity:1;fill-rule:evenodd;stroke:none;stroke-width:1px;stroke-linecap:butt;stroke-linejoin:miter;stroke-opacity:1"
           d="m 350.42953,203.94466 22.70986,-2.39052 c 6.07844,-0.72107 6.37179,4.2001 3.45878,5.06314 -10.06665,2.0756 -16.97012,3.42343 -25.57042,4.33553 z"
           id="path4216"
           inkscape:connector-curvature="0"
           sodipodi:nodetypes="ccccc" />
        <path
           sodipodi:nodetypes="ccccc"
           inkscape:connector-curvature="0"
           id="path4224"
           d="m 455.17331,217.8826 c 17.06575,-0.15341 13.08051,-26.70946 5.36241,-27.75254 l -109.64171,10.77104 0.5649,25.85025 z"
           style="fill:none;fill-opacity:1;fill-rule:evenodd;stroke:#000000;stroke-width:3;stroke-linecap:butt;stroke-linejoin:miter;stroke-miterlimit:4;stroke-dasharray:none;stroke-opacity:1" />
      </g>
      <path
         sodipodi:nodetypes="csccccccccc"
         inkscape:connector-curvature="0"
         id="path4179"
         d="m 179.21479,234.42148 c 41.50802,-1.42752 78.77141,-7.38453 95.39109,-16.296 40.90482,-21.93315 80.45139,-71.67636 91.78801,-165.64259 -0.36215,-8.85133 -6.97938,-9.84226 -11.90513,-8.61104 l -67.65451,13.74583 c -6.72349,1.68374 -9.04815,4.63849 -10.90022,7.72977 -4.14994,8.151 -7.70592,18.39271 -14.65286,20.15791 -24.66988,6.598132 -53.05569,11.142766 -87.33806,12.681031 l -42.82328,49.371549 60.81953,68.16198 z"
         style="fill:#dbdce1;fill-opacity:1;fill-rule:evenodd;stroke:none;stroke-width:3;stroke-linecap:butt;stroke-linejoin:miter;stroke-miterlimit:4;stroke-dasharray:none;stroke-opacity:1" />
      <path
         style="fill:#0094b1;fill-opacity:1;fill-rule:evenodd;stroke:none;stroke-width:3;stroke-linecap:butt;stroke-linejoin:miter;stroke-miterlimit:4;stroke-dasharray:none;stroke-opacity:1"
         d="m 134.92204,143.22465 c 72.12379,-0.87848 144.36157,-11.85977 216.61096,-23.86996 6.66354,-19.27128 11.79429,-41.45359 14.86089,-66.8718 -0.36218,-8.85133 -6.97942,-9.84227 -11.9052,-8.61104 L 286.8342,57.61768 c -6.72349,1.68374 -9.04815,4.63848 -10.90022,7.72977 -4.14994,8.15099 -7.70592,18.39271 -14.65286,20.15791 -24.69601,6.60512 -53.11581,11.152388 -87.44699,12.685904 z"
         id="path4220"
         inkscape:connector-curvature="0"
         sodipodi:nodetypes="ccccccccc" />
      <path
         sodipodi:nodetypes="cccc"
         inkscape:connector-curvature="0"
         id="path4208"
         d="m 324.26505,52.11305 c -6.12795,56.28029 -20.33793,106.10919 -58.87592,135.43878 23.62858,0.38173 76.42853,-25.37105 90.66097,-142.62242 z"
         style="opacity:0.46200005;fill:#ffffff;fill-rule:evenodd;stroke:none;stroke-width:1px;stroke-linecap:butt;stroke-linejoin:miter;stroke-opacity:1" />
      <path
         sodipodi:nodetypes="ccccccc"
         inkscape:connector-curvature="0"
         id="path4204"
         d="m 189.36052,211.61245 c 60.58411,-5.8757 111.50936,-24.41892 148.02572,-58.78107 -7.99385,9.74344 -23.83589,48.92288 -70.66544,68.76673 -62.68497,15.78071 -68.92071,11.18283 -82.99256,12.3181 -0.8532,0.008 -1.70195,0.0151 -2.54627,0.0212 l 10.4899,-17.6677 z"
         style="opacity:1;fill:#b3b3b3;fill-rule:evenodd;stroke:none;stroke-width:1px;stroke-linecap:butt;stroke-linejoin:miter;stroke-opacity:1" />
      <path
         style="fill:none;fill-opacity:1;fill-rule:evenodd;stroke:#000000;stroke-width:3;stroke-linecap:butt;stroke-linejoin:miter;stroke-miterlimit:4;stroke-dasharray:none;stroke-opacity:1"
         d="m 180.09361,234.39056 c 41.15452,-1.4809 78.00997,-7.41655 94.51227,-16.26508 40.90482,-21.93315 80.45139,-71.67636 91.78801,-165.64259 -0.36215,-8.85133 -6.97938,-9.84226 -11.90513,-8.61104 l -67.65451,13.74583 c -6.72349,1.68374 -9.04815,4.63849 -10.90022,7.72977 -4.14994,8.151 -7.70592,18.39271 -14.65286,20.15791 -24.317,6.503751 -53.5702,11.075466 -87.19635,12.676312 l -43.38584,49.506358 61.14804,68.28512 z"
         id="path4222"
         inkscape:connector-curvature="0"
         sodipodi:nodetypes="csccccccccc" />
    </g>
  </g>
</svg>
