<?xml version="1.0" encoding="UTF-8" standalone="no"?>
<!-- Created with Inkscape (http://www.inkscape.org/) -->

<svg
   xmlns:dc="http://purl.org/dc/elements/1.1/"
   xmlns:cc="http://creativecommons.org/ns#"
   xmlns:rdf="http://www.w3.org/1999/02/22-rdf-syntax-ns#"
   xmlns:svg="http://www.w3.org/2000/svg"
   xmlns="http://www.w3.org/2000/svg"
   xmlns:sodipodi="http://sodipodi.sourceforge.net/DTD/sodipodi-0.dtd"
   xmlns:inkscape="http://www.inkscape.org/namespaces/inkscape"
   width="110.04726mm"
   height="94.32946mm"
   viewBox="0 0 389.93122 334.23824"
   id="svg2"
   version="1.1"
   inkscape:version="0.91 r13725"
   sodipodi:docname="boat.svg">
  <defs
     id="defs4" />
  <sodipodi:namedview
     id="base"
     pagecolor="#ffffff"
     bordercolor="#666666"
     borderopacity="1.0"
     inkscape:pageopacity="0.0"
     inkscape:pageshadow="2"
     inkscape:zoom="0.35"
     inkscape:cx="375"
     inkscape:cy="520"
     inkscape:document-units="px"
     inkscape:current-layer="layer1"
     showgrid="false"
     inkscape:window-width="1920"
     inkscape:window-height="1137"
     inkscape:window-x="-8"
     inkscape:window-y="-8"
     inkscape:window-maximized="1"
     fit-margin-top="0"
     fit-margin-left="0"
     fit-margin-right="0"
     fit-margin-bottom="0" />
  <metadata
     id="metadata7">
    <rdf:RDF>
      <cc:Work
         rdf:about="">
        <dc:format>image/svg+xml</dc:format>
        <dc:type
           rdf:resource="http://purl.org/dc/dcmitype/StillImage" />
        <dc:title></dc:title>
      </cc:Work>
    </rdf:RDF>
  </metadata>
  <g
     inkscape:label="Layer 1"
     inkscape:groupmode="layer"
     id="layer1"
     transform="translate(-168.68065,-124.15766)">
    <g
       id="g4404"
       transform="translate(-190.7143,-222.14286)">
      <g
         transform="matrix(0.99648401,0.08378322,-0.08378322,0.99648401,25.847116,-29.440883)"
         id="g4266">
        <path
           style="fill:#6f6d69;fill-opacity:1;fill-rule:evenodd;stroke:#000000;stroke-width:3;stroke-linecap:butt;stroke-linejoin:miter;stroke-miterlimit:4;stroke-dasharray:none;stroke-opacity:1"
           d="m 287.85714,253.43363 -1.42857,-107.85714 c 15.47811,-23.0597 89.16586,-22.62574 97.5,-8.92857 l 17.85714,103.92857 z"
           id="path4200"
           inkscape:connector-curvature="0"
           sodipodi:nodetypes="ccccc" />
        <path
           style="fill:#9a9996;fill-opacity:1;fill-rule:evenodd;stroke:none;stroke-width:1px;stroke-linecap:butt;stroke-linejoin:miter;stroke-opacity:1"
           d="m 322.23866,246.51301 -22.22335,3.03046 -5.3033,-103.79318 c -0.009,-2.01315 5.7219,-5.69033 9.85424,-6.74456 l 6.6347,0.77031 z"
           id="path4210"
           inkscape:connector-curvature="0"
           sodipodi:nodetypes="cccccc" />
        <path
           style="fill:#4d4c49;fill-opacity:1;fill-rule:evenodd;stroke:none;stroke-width:1px;stroke-linecap:butt;stroke-linejoin:miter;stroke-opacity:1"
           d="m 375.71429,200.04077 -8.21429,-63.75 c 0.12882,-3.54433 2.5338,-4.24346 4.46429,-5.53571 L 383.75,136.82649 395,202.00506 Z"
           id="path4212"
           inkscape:connector-curvature="0"
           sodipodi:nodetypes="cccccc" />
        <ellipse
           style="opacity:1;fill:#000000;fill-opacity:1;stroke:none;stroke-width:3;stroke-linecap:round;stroke-linejoin:round;stroke-miterlimit:4;stroke-dasharray:none;stroke-dashoffset:0;stroke-opacity:1"
           id="path4202"
           cx="321.45111"
           cy="165.81932"
           rx="30.892857"
           ry="4.1071429"
           transform="matrix(0.99610421,-0.08818393,0.08818393,0.99610421,0,0)" />
        <path
           sodipodi:nodetypes="ccccc"
           inkscape:connector-curvature="0"
           id="path4226"
           d="m 287.85714,253.43363 -1.42857,-107.85714 c 15.47811,-23.0597 89.16586,-22.62574 97.5,-8.92857 l 17.85714,103.92857 z"
           style="fill:none;fill-opacity:1;fill-rule:evenodd;stroke:#000000;stroke-width:3;stroke-linecap:butt;stroke-linejoin:miter;stroke-miterlimit:4;stroke-dasharray:none;stroke-opacity:1" />
      </g>
      <g
         transform="matrix(0.99648401,0.08378322,-0.08378322,0.99648401,25.847116,-29.440883)"
         id="g4242">
        <path
           style="fill:#dbdce1;fill-opacity:1;fill-rule:evenodd;stroke:#000000;stroke-width:3;stroke-linecap:butt;stroke-linejoin:miter;stroke-miterlimit:4;stroke-dasharray:none;stroke-opacity:1"
           d="m 235.98791,331.23956 c 0,-1.26269 -5.55321,-60.03646 -5.55321,-60.03646 -0.40996,-7.39172 0.59221,-14.16947 10.99176,-16.86141 l 97.47972,-9.59645 -2.19888,-23.3053 117.83071,-7.09644 9.62709,101.87003 z"
           id="path4181"
           inkscape:connector-curvature="0"
           sodipodi:nodetypes="cccccccc" />
        <rect
           style="opacity:1;fill:#966a4c;fill-opacity:1;stroke:#000000;stroke-width:3;stroke-linecap:round;stroke-linejoin:round;stroke-miterlimit:4;stroke-dasharray:none;stroke-dashoffset:0;stroke-opacity:1"
           id="rect4185"
           width="49.918331"
           height="87.418335"
           x="358.29391"
           y="276.71216"
           ry="6.0906215"
           transform="matrix(0.99559494,-0.09375885,0.09375885,0.99559494,0,0)" />
        <g
           id="g4228">
          <path
             sodipodi:nodetypes="ccccc"
             inkscape:connector-curvature="0"
             id="path4218"
             d="m 280,304.08665 c 8.67945,-19.75084 25.12446,-19.70469 36.07143,-2.67857 l 1.07143,-26.78572 -43.21429,5.89286 z"
             style="fill:#999a9d;fill-opacity:1;fill-rule:evenodd;stroke:none;stroke-width:1px;stroke-linecap:butt;stroke-linejoin:miter;stroke-opacity:1" />
          <path
             inkscape:connector-curvature="0"
             id="path4187"
             d="m 293.51271,261.63742 a 36.5,36.5 0 0 0 -32.76407,39.88754 36.5,36.5 0 0 0 39.88753,32.76407 36.5,36.5 0 0 0 32.76408,-39.88753 36.5,36.5 0 0 0 -39.88754,-32.76408 z m 2.61876,20.84394 a 16,16 0 0 1 17.48494,14.36233 16,16 0 0 1 -14.36233,17.48495 16,16 0 0 1 -17.48495,-14.36234 16,16 0 0 1 14.36234,-17.48494 z"
             style="opacity:1;fill:#ff8629;fill-opacity:1;stroke:#000000;stroke-width:2;stroke-linecap:round;stroke-linejoin:round;stroke-miterlimit:4;stroke-dasharray:none;stroke-dashoffset:0;stroke-opacity:1" />
          <rect
             transform="matrix(0.99522753,-0.09758161,0.09758161,0.99522753,0,0)"
             ry="0"
             y="285.83707"
             x="263.72379"
             height="27.142857"
             width="5.7142859"
             id="rect4192"
             style="opacity:1;fill:#ad5816;fill-opacity:1;stroke:#000000;stroke-width:2;stroke-linecap:round;stroke-linejoin:miter;stroke-miterlimit:4;stroke-dasharray:none;stroke-dashoffset:0;stroke-opacity:1" />
          <rect
             transform="matrix(0.99522753,-0.09758161,0.09758161,0.99522753,0,0)"
             style="opacity:1;fill:#ad5816;fill-opacity:1;stroke:#000000;stroke-width:2;stroke-linecap:round;stroke-linejoin:miter;stroke-miterlimit:4;stroke-dasharray:none;stroke-dashoffset:0;stroke-opacity:1"
             id="rect4194"
             width="5.7142859"
             height="27.142857"
             x="263.72379"
             y="339.66104"
             ry="0" />
          <rect
             transform="matrix(0.09758161,0.99522753,-0.99522753,0.09758161,0,0)"
             ry="0"
             y="-307.03513"
             x="322.67307"
             height="27.142857"
             width="5.7142859"
             id="rect4196"
             style="opacity:1;fill:#ad5816;fill-opacity:1;stroke:#000000;stroke-width:2;stroke-linecap:round;stroke-linejoin:miter;stroke-miterlimit:4;stroke-dasharray:none;stroke-dashoffset:0;stroke-opacity:1" />
          <rect
             style="opacity:1;fill:#ad5816;fill-opacity:1;stroke:#000000;stroke-width:2;stroke-linecap:round;stroke-linejoin:miter;stroke-miterlimit:4;stroke-dasharray:none;stroke-dashoffset:0;stroke-opacity:1"
             id="rect4198"
             width="5.7142859"
             height="27.142857"
             x="322.67307"
             y="-253.75955"
             ry="0"
             transform="matrix(0.09758161,0.99522753,-0.99522753,0.09758161,0,0)" />
        </g>
        <g
           id="g4236">
          <path
             sodipodi:nodetypes="ccccc"
             inkscape:connector-curvature="0"
             id="path4183"
             d="m 455.17331,217.8826 c 17.06575,-0.15341 13.08051,-26.70946 5.36241,-27.75254 L 328.75,203.07649 c -8.38591,2.32799 -6.45895,24.58048 3.03571,25.35714 z"
             style="fill:#cfcbc8;fill-opacity:1;fill-rule:evenodd;stroke:#000000;stroke-width:3;stroke-linecap:butt;stroke-linejoin:miter;stroke-miterlimit:4;stroke-dasharray:none;stroke-opacity:1" />
          <path
             sodipodi:nodetypes="cccccc"
             inkscape:connector-curvature="0"
             id="path4214"
             d="m 326.96429,223.6122 130,-12.14285 c 4.91751,-1.85446 7.55731,-5.607 9.64285,-9.82143 0.56545,11.00179 -3.73868,14.03636 -11.60714,17.14285 l -123.21428,9.82144 c -3.6423,-2.46411 -3.96878,-3.46579 -4.82143,-5.00001 z"
             style="fill:#908e8c;fill-opacity:1;fill-rule:evenodd;stroke:none;stroke-width:1px;stroke-linecap:butt;stroke-linejoin:miter;stroke-opacity:1" />
          <path
             sodipodi:nodetypes="ccccc"
             inkscape:connector-curvature="0"
             id="path4216"
             d="m 330.51962,212.26843 c -4.46512,0.0274 -2.88745,-5.94789 0.31196,-6.26083 l 42.30781,-4.45346 c 6.07844,-0.72107 6.37179,4.2001 3.45878,5.06314 -16.6756,3.43827 -24.67125,4.87951 -46.07855,5.65115 z"
             style="fill:#ffffff;fill-opacity:1;fill-rule:evenodd;stroke:none;stroke-width:1px;stroke-linecap:butt;stroke-linejoin:miter;stroke-opacity:1" />
          <path
             style="fill:none;fill-opacity:1;fill-rule:evenodd;stroke:#000000;stroke-width:3;stroke-linecap:butt;stroke-linejoin:miter;stroke-miterlimit:4;stroke-dasharray:none;stroke-opacity:1"
             d="m 455.17331,217.8826 c 17.06575,-0.15341 13.08051,-26.70946 5.36241,-27.75254 L 328.75,203.07649 c -8.38591,2.32799 -6.45895,24.58048 3.03571,25.35714 z"
             id="path4224"
             inkscape:connector-curvature="0"
             sodipodi:nodetypes="ccccc" />
        </g>
      </g>
      <g
         id="g4396">
        <path
           style="fill:#dbdce1;fill-opacity:1;fill-rule:evenodd;stroke:#ff0000;stroke-width:3;stroke-linecap:butt;stroke-linejoin:miter;stroke-miterlimit:4;stroke-dasharray:none;stroke-opacity:1"
           d="m 170.18662,313.0609 c 1.79331,21.40822 -4.75098,78.48983 41.76033,115.83327 46.51131,37.34343 212.46841,33.30732 253.37323,11.37417 40.90482,-21.93314 80.45139,-71.67636 91.78801,-165.64259 -0.36215,-8.85133 -6.97938,-9.84226 -11.90513,-8.61104 l -67.65451,13.74583 c -6.72349,1.68374 -9.04815,4.63849 -10.90022,7.72977 -4.14994,8.151 -7.70592,18.39271 -14.65286,20.15791 -59.46381,15.90401 -140.51688,19.87733 -273.69725,-1.4242 -4.35751,-0.18906 -7.64297,1.91742 -8.1116,6.83688 z"
           id="path4179"
           inkscape:connector-curvature="0"
           sodipodi:nodetypes="czzccccccc" />
        <path
           style="opacity:1;fill:#b3b3b3;fill-rule:evenodd;stroke:none;stroke-width:1px;stroke-linecap:butt;stroke-linejoin:miter;stroke-opacity:1"
           d="m 208.19683,424.10586 c 140.02134,23.13918 252.79029,14.02259 319.90371,-49.13162 -7.99385,9.74344 -23.83589,48.92288 -70.66544,68.76673 -62.68497,15.78071 -68.92071,11.18283 -82.99256,12.3181 -127.17565,1.20438 -155.39292,-20.15341 -166.24571,-31.95321 z"
           id="path4204"
           inkscape:connector-curvature="0"
           sodipodi:nodetypes="ccccc" />
        <path
           sodipodi:nodetypes="cccccccccc"
           inkscape:connector-curvature="0"
           id="path4220"
           d="m 170.18657,313.0609 c 0.66282,7.91267 0.18664,20.69871 1.67136,35.56025 123.08683,30.97719 246.7211,13.43408 370.38937,-7.1236 6.66354,-19.27128 11.79429,-41.45359 14.86089,-66.8718 -0.36218,-8.85133 -6.97942,-9.84227 -11.9052,-8.61104 l -67.65449,13.74583 c -6.72349,1.68374 -9.04815,4.63848 -10.90022,7.72977 -4.14994,8.15099 -7.70592,18.39271 -14.65286,20.15791 -59.46381,15.90401 -140.51688,19.87732 -273.69725,-1.42421 -4.35751,-0.18906 -7.64297,1.91742 -8.1116,6.83689 z"
           style="fill:#0094b1;fill-opacity:1;fill-rule:evenodd;stroke:none;stroke-width:3;stroke-linecap:butt;stroke-linejoin:miter;stroke-miterlimit:4;stroke-dasharray:none;stroke-opacity:1" />
        <path
           style="opacity:0.46200005;fill:#ffffff;fill-rule:evenodd;stroke:none;stroke-width:1px;stroke-linecap:butt;stroke-linejoin:miter;stroke-opacity:1"
           d="m 200.09116,310.8594 c 8.29691,60.70022 24.08131,108.57394 57.17145,105.42855 -8.04984,-14.34734 -21.37934,-67.54008 -25.97308,-101.37182 z"
           id="path4206"
           inkscape:connector-curvature="0"
           sodipodi:nodetypes="cccc" />
        <path
           style="opacity:0.46200005;fill:#ffffff;fill-rule:evenodd;stroke:none;stroke-width:1px;stroke-linecap:butt;stroke-linejoin:miter;stroke-opacity:1"
           d="m 514.97935,274.25591 c -6.12795,56.28029 -20.33793,106.10919 -58.87592,135.43878 23.62858,0.38173 76.42853,-25.37105 90.66097,-142.62242 z"
           id="path4208"
           inkscape:connector-curvature="0"
           sodipodi:nodetypes="cccc" />
        <path
           sodipodi:nodetypes="czzccccccc"
           inkscape:connector-curvature="0"
           id="path4222"
           d="m 170.18662,313.0609 c 1.79331,21.40822 -4.75098,78.48983 41.76033,115.83327 46.51131,37.34343 212.46841,33.30732 253.37323,11.37417 40.90482,-21.93314 80.45139,-71.67636 91.78801,-165.64259 -0.36215,-8.85133 -6.97938,-9.84226 -11.90513,-8.61104 l -67.65451,13.74583 c -6.72349,1.68374 -9.04815,4.63849 -10.90022,7.72977 -4.14994,8.151 -7.70592,18.39271 -14.65286,20.15791 -59.46381,15.90401 -140.51688,19.87733 -273.69725,-1.4242 -4.35751,-0.18906 -7.64297,1.91742 -8.1116,6.83688 z"
           style="fill:none;fill-opacity:1;fill-rule:evenodd;stroke:#000000;stroke-width:3;stroke-linecap:butt;stroke-linejoin:miter;stroke-miterlimit:4;stroke-dasharray:none;stroke-opacity:1" />
      </g>
    </g>
  </g>
</svg>
