<?xml version="1.0" encoding="UTF-8" standalone="no"?>
<!-- Created with Inkscape (http://www.inkscape.org/) -->

<svg
   xmlns:dc="http://purl.org/dc/elements/1.1/"
   xmlns:cc="http://creativecommons.org/ns#"
   xmlns:rdf="http://www.w3.org/1999/02/22-rdf-syntax-ns#"
   xmlns:svg="http://www.w3.org/2000/svg"
   xmlns="http://www.w3.org/2000/svg"
   xmlns:sodipodi="http://sodipodi.sourceforge.net/DTD/sodipodi-0.dtd"
   xmlns:inkscape="http://www.inkscape.org/namespaces/inkscape"
   width="110.04726mm"
   height="94.32946mm"
   viewBox="0 0 389.93122 334.23824"
   id="svg2"
   version="1.1"
   inkscape:version="0.91 r13725"
   sodipodi:docname="boatX.svg">
  <defs
     id="defs4">
    <clipPath
       clipPathUnits="userSpaceOnUse"
       id="clipPath4497">
      <path
         id="path4499"
         d="m 358.79745,100.71129 -37.93555,187.14453 60,22.85547 -65.71484,60 61.42773,68.57226 -28.75585,45.71484 224.4707,0 0,-384.2871 -213.49219,0 z"
         style="opacity:0.44100001;fill:#ffd5d5;fill-opacity:1;stroke:none;stroke-width:3;stroke-linecap:round;stroke-linejoin:miter;stroke-miterlimit:4;stroke-dasharray:none;stroke-dashoffset:0;stroke-opacity:1"
         inkscape:connector-curvature="0" />
    </clipPath>
    <clipPath
       clipPathUnits="userSpaceOnUse"
       id="clipPath4565">
      <path
         inkscape:connector-curvature="0"
         style="opacity:0.44100001;fill:#ffd5d5;fill-opacity:1;stroke:none;stroke-width:3;stroke-linecap:round;stroke-linejoin:miter;stroke-miterlimit:4;stroke-dasharray:none;stroke-dashoffset:0;stroke-opacity:1"
         d="m 362.83806,99.70113 -213.65039,0 0,384.2871 202.67188,0 28.75585,-45.71484 -61.42773,-68.57226 65.71484,-60 -60,-22.85547 37.93555,-187.14453 z"
         id="path4567" />
    </clipPath>
  </defs>
  <sodipodi:namedview
     id="base"
     pagecolor="#ffffff"
     bordercolor="#666666"
     borderopacity="1.0"
     inkscape:pageopacity="0.0"
     inkscape:pageshadow="2"
     inkscape:zoom="0.35"
     inkscape:cx="375"
     inkscape:cy="520"
     inkscape:document-units="px"
     inkscape:current-layer="layer1"
     showgrid="false"
     inkscape:window-width="1600"
     inkscape:window-height="837"
     inkscape:window-x="-8"
     inkscape:window-y="-8"
     inkscape:window-maximized="1"
     fit-margin-top="0"
     fit-margin-left="0"
     fit-margin-right="0"
     fit-margin-bottom="0" />
  <metadata
     id="metadata7">
    <rdf:RDF>
      <cc:Work
         rdf:about="">
        <dc:format>image/svg+xml</dc:format>
        <dc:type
           rdf:resource="http://purl.org/dc/dcmitype/StillImage" />
        <dc:title />
      </cc:Work>
    </rdf:RDF>
  </metadata>
  <g
     inkscape:label="Layer 1"
     inkscape:groupmode="layer"
     id="layer1"
     transform="translate(-168.68065,-124.15766)">
    <g
       id="g4677">
      <g
         id="g4660">
        <path
           sodipodi:nodetypes="ccccc"
           inkscape:connector-curvature="0"
           id="path4505"
           d="m 100.74437,25.076418 7.61307,-107.597606 c 9.81145,-12.257057 37.53113,-15.473788 61.06897,-13.362297 l -8.76066,119.454094 z"
           style="fill:#6f6d69;fill-opacity:1;fill-rule:evenodd;stroke:none;stroke-width:3;stroke-linecap:butt;stroke-linejoin:miter;stroke-miterlimit:4;stroke-dasharray:none;stroke-opacity:1" />
        <path
           sodipodi:nodetypes="cccccc"
           inkscape:connector-curvature="0"
           id="path4507"
           d="m 135.58484,21.060725 -22.39912,1.157861 3.41148,-103.872571 c 0.1597,-2.006826 6.17853,-5.190924 10.38467,-5.895227 l 6.54683,1.323478 z"
           style="fill:#9a9996;fill-opacity:1;fill-rule:evenodd;stroke:none;stroke-width:1px;stroke-linecap:butt;stroke-linejoin:miter;stroke-opacity:1" />
        <path
           transform="matrix(0.99999024,-0.00441706,0.00441706,0.99999024,0,0)"
           style="opacity:1;fill:#000000;fill-opacity:1;stroke:none;stroke-width:3;stroke-linecap:round;stroke-linejoin:round;stroke-miterlimit:4;stroke-dasharray:none;stroke-dashoffset:0;stroke-opacity:1"
           d="m 169.24048,-82.679383 c -3.56634,0.191129 -7.46259,0.296337 -11.54367,0.296337 -17.06166,10e-7 -30.89286,-1.83883 -30.89286,-4.107143 0,-2.268313 13.8312,-4.107144 30.89286,-4.107143 4.35937,0 8.50784,0.120046 12.26859,0.336629 z"
           id="ellipse4511"
           inkscape:connector-curvature="0"
           sodipodi:nodetypes="cssscc" />
        <path
           style="fill:none;fill-opacity:1;fill-rule:evenodd;stroke:#000000;stroke-width:3;stroke-linecap:butt;stroke-linejoin:miter;stroke-miterlimit:4;stroke-dasharray:none;stroke-opacity:1"
           d="m 100.74437,25.076418 7.61307,-107.597606 c 9.7781,-12.215393 37.34289,-15.451815 60.8288,-13.383644 l -7.02813,120.11852 z"
           id="path4513"
           inkscape:connector-curvature="0"
           sodipodi:nodetypes="ccccc" />
      </g>
      <path
         style="fill:#dbdce1;fill-opacity:1;fill-rule:evenodd;stroke:#000000;stroke-width:3;stroke-linecap:butt;stroke-linejoin:miter;stroke-miterlimit:4;stroke-dasharray:none;stroke-opacity:1"
         d="M 42.538682,98.263012 C 42.644474,97.004762 42.035045,37.972374 42.035045,37.972374 42.245828,30.572295 43.812337,23.902341 54.400861,22.091173 L 152.34186,20.695629 152.10331,-2.7119588 163.50555,-2.4413501 160.69143,51.296 185.90168,79.602525 168.04951,100.53802 Z"
         id="path4517"
         inkscape:connector-curvature="0"
         sodipodi:nodetypes="cccccccccc" />
      <g
         transform="matrix(0.99648401,0.08378322,-0.08378322,0.99648401,-164.86718,-251.58374)"
         id="g4521">
        <path
           sodipodi:nodetypes="ccccc"
           inkscape:connector-curvature="0"
           id="path4523"
           d="m 280,304.08665 c 8.67945,-19.75084 25.12446,-19.70469 36.07143,-2.67857 l 1.07143,-26.78572 -43.21429,5.89286 z"
           style="fill:#999a9d;fill-opacity:1;fill-rule:evenodd;stroke:none;stroke-width:1px;stroke-linecap:butt;stroke-linejoin:miter;stroke-opacity:1" />
        <path
           inkscape:connector-curvature="0"
           id="path4525"
           d="m 293.51271,261.63742 a 36.5,36.5 0 0 0 -32.76407,39.88754 36.5,36.5 0 0 0 39.88753,32.76407 36.5,36.5 0 0 0 32.76408,-39.88753 36.5,36.5 0 0 0 -39.88754,-32.76408 z m 2.61876,20.84394 a 16,16 0 0 1 17.48494,14.36233 16,16 0 0 1 -14.36233,17.48495 16,16 0 0 1 -17.48495,-14.36234 16,16 0 0 1 14.36234,-17.48494 z"
           style="opacity:1;fill:#ff8629;fill-opacity:1;stroke:#000000;stroke-width:2;stroke-linecap:round;stroke-linejoin:round;stroke-miterlimit:4;stroke-dasharray:none;stroke-dashoffset:0;stroke-opacity:1" />
        <rect
           transform="matrix(0.99522753,-0.09758161,0.09758161,0.99522753,0,0)"
           ry="0"
           y="285.83707"
           x="263.72379"
           height="27.142857"
           width="5.7142859"
           id="rect4527"
           style="opacity:1;fill:#ad5816;fill-opacity:1;stroke:#000000;stroke-width:2;stroke-linecap:round;stroke-linejoin:miter;stroke-miterlimit:4;stroke-dasharray:none;stroke-dashoffset:0;stroke-opacity:1" />
        <rect
           transform="matrix(0.99522753,-0.09758161,0.09758161,0.99522753,0,0)"
           style="opacity:1;fill:#ad5816;fill-opacity:1;stroke:#000000;stroke-width:2;stroke-linecap:round;stroke-linejoin:miter;stroke-miterlimit:4;stroke-dasharray:none;stroke-dashoffset:0;stroke-opacity:1"
           id="rect4529"
           width="5.7142859"
           height="27.142857"
           x="263.72379"
           y="339.66104"
           ry="0" />
        <rect
           transform="matrix(0.09758161,0.99522753,-0.99522753,0.09758161,0,0)"
           ry="0"
           y="-307.03513"
           x="322.67307"
           height="27.142857"
           width="5.7142859"
           id="rect4531"
           style="opacity:1;fill:#ad5816;fill-opacity:1;stroke:#000000;stroke-width:2;stroke-linecap:round;stroke-linejoin:miter;stroke-miterlimit:4;stroke-dasharray:none;stroke-dashoffset:0;stroke-opacity:1" />
        <rect
           style="opacity:1;fill:#ad5816;fill-opacity:1;stroke:#000000;stroke-width:2;stroke-linecap:round;stroke-linejoin:miter;stroke-miterlimit:4;stroke-dasharray:none;stroke-dashoffset:0;stroke-opacity:1"
           id="rect4533"
           width="5.7142859"
           height="27.142857"
           x="322.67307"
           y="-253.75955"
           ry="0"
           transform="matrix(0.09758161,0.99522753,-0.99522753,0.09758161,0,0)" />
      </g>
      <path
         style="fill:#cfcbc8;fill-opacity:1;fill-rule:evenodd;stroke:#000000;stroke-width:3;stroke-linecap:butt;stroke-linejoin:miter;stroke-miterlimit:4;stroke-dasharray:none;stroke-opacity:1"
         d="m 164.92834,-21.947391 -19.2158,0.26986 c -8.55148,1.617206 -8.49568,23.9529033 0.90053,25.5223258 l 16.88898,-0.024019 z"
         id="path4537"
         inkscape:connector-curvature="0"
         sodipodi:nodetypes="ccccc" />
      <path
         style="fill:#ffffff;fill-opacity:1;fill-rule:evenodd;stroke:none;stroke-width:1px;stroke-linecap:butt;stroke-linejoin:miter;stroke-opacity:1"
         d="m 146.7058,-12.369646 c -4.45171,-0.346798 -2.37896,-6.168897 0.83542,-6.21268 l 17.65296,-0.370688 -0.61968,7.029928 c -5.01601,0.03923 -10.69421,-0.102988 -17.8687,-0.44656 z"
         id="path4541"
         inkscape:connector-curvature="0"
         sodipodi:nodetypes="ccccc" />
      <path
         style="fill:#908e8c;fill-opacity:1;fill-rule:evenodd;stroke:none;stroke-width:1px;stroke-linecap:butt;stroke-linejoin:miter;stroke-opacity:1"
         d="m 142.21256,-1.3636372 20.91033,-0.1935254 -0.37639,5.6499864 -16.14838,-0.070076 c -3.42304,-2.7606098 -3.66445,-3.78612146 -4.38556,-5.3863849 z"
         id="path4539"
         inkscape:connector-curvature="0"
         sodipodi:nodetypes="ccccc" />
      <path
         sodipodi:nodetypes="ccccc"
         inkscape:connector-curvature="0"
         id="path4543"
         d="m 164.76612,-21.945113 -19.05358,0.267582 c -8.55148,1.617206 -8.49568,23.9529033 0.90053,25.5223258 l 16.76319,-0.023841 z"
         style="fill:none;fill-opacity:1;fill-rule:evenodd;stroke:#000000;stroke-width:3;stroke-linecap:butt;stroke-linejoin:miter;stroke-miterlimit:4;stroke-dasharray:none;stroke-opacity:1" />
      <g
         id="g4670">
        <path
           sodipodi:nodetypes="cscccccc"
           inkscape:connector-curvature="0"
           id="path4547"
           d="m -20.52768,90.91804 c 1.79331,21.40822 -4.750985,78.48984 41.76033,115.83327 27.355628,21.96354 96.03,29.61305 156.27921,27.72612 l 9.50174,-17.36854 -61.49286,-69.96976 44.14739,-48.777708 C 122.06038,100.1255 63.231062,96.18054 -12.41608,84.08116 c -4.35751,-0.18906 -7.64297,1.91742 -8.1116,6.83688 z"
           style="fill:#dbdce1;fill-opacity:1;fill-rule:evenodd;stroke:none;stroke-width:3;stroke-linecap:butt;stroke-linejoin:miter;stroke-miterlimit:4;stroke-dasharray:none;stroke-opacity:1" />
        <path
           style="fill:#0094b1;fill-opacity:1;fill-rule:evenodd;stroke:none;stroke-width:3;stroke-linecap:butt;stroke-linejoin:miter;stroke-miterlimit:4;stroke-dasharray:none;stroke-opacity:1"
           d="m -20.52773,90.91804 c 0.66282,7.91267 0.18664,20.69871 1.67136,35.56025 49.639343,12.4927 99.367723,17.09404 149.15146,16.78877 l 39.1651,-44.897977 C 121.88909,100.11399 63.120937,96.162924 -12.41613,84.08115 c -4.35751,-0.18906 -7.64297,1.91742 -8.1116,6.83689 z"
           id="path4551"
           inkscape:connector-curvature="0"
           sodipodi:nodetypes="cccccc" />
        <path
           sodipodi:nodetypes="cccc"
           inkscape:connector-curvature="0"
           id="path4553"
           d="M 9.37686,88.71654 C 17.67377,149.41676 33.45817,197.29048 66.54831,194.14509 58.49847,179.79775 45.16897,126.60501 40.57523,92.77327 Z"
           style="opacity:0.46200005;fill:#ffffff;fill-rule:evenodd;stroke:none;stroke-width:1px;stroke-linecap:butt;stroke-linejoin:miter;stroke-opacity:1" />
        <path
           sodipodi:nodetypes="ccccc"
           inkscape:connector-curvature="0"
           id="path4549"
           d="m 17.48253,201.963 c 61.277202,10.12634 117.33508,14.07513 166.63121,10.02074 l 2.38274,4.34034 -9.02762,17.63108 C 55.082886,234.48523 28.173354,213.5867 17.48253,201.963 Z"
           style="opacity:1;fill:#b3b3b3;fill-rule:evenodd;stroke:none;stroke-width:1px;stroke-linecap:butt;stroke-linejoin:miter;stroke-opacity:1" />
        <path
           style="fill:none;fill-opacity:1;fill-rule:evenodd;stroke:#000000;stroke-width:3;stroke-linecap:butt;stroke-linejoin:miter;stroke-miterlimit:4;stroke-dasharray:none;stroke-opacity:1"
           d="m -20.52768,90.91804 c 1.79331,21.40822 -4.750985,78.48984 41.76033,115.83327 27.317223,21.9327 95.83725,29.59154 156.02541,27.73401 l 10.8399,-18.2117 -61.56755,-68.63257 43.42996,-49.387705 C 122.44031,99.9717 62.96807,96.138475 -12.41608,84.08116 c -4.35751,-0.18906 -7.64297,1.91742 -8.1116,6.83688 z"
           id="path4557"
           inkscape:connector-curvature="0"
           sodipodi:nodetypes="cscccccc" />
      </g>
    </g>
  </g>
</svg>
