<?xml version="1.0" encoding="UTF-8" standalone="no"?>
<!-- Created with Inkscape (http://www.inkscape.org/) -->

<svg
   xmlns:dc="http://purl.org/dc/elements/1.1/"
   xmlns:cc="http://creativecommons.org/ns#"
   xmlns:rdf="http://www.w3.org/1999/02/22-rdf-syntax-ns#"
   xmlns:svg="http://www.w3.org/2000/svg"
   xmlns="http://www.w3.org/2000/svg"
   xmlns:sodipodi="http://sodipodi.sourceforge.net/DTD/sodipodi-0.dtd"
   xmlns:inkscape="http://www.inkscape.org/namespaces/inkscape"
   width="32.500134mm"
   height="25.477291mm"
   viewBox="0 0 115.15796 90.273867"
   id="svg2"
   version="1.1"
   inkscape:version="0.91 r13725"
   sodipodi:docname="cloud.svg">
  <defs
     id="defs4" />
  <sodipodi:namedview
     id="base"
     pagecolor="#ffffff"
     bordercolor="#666666"
     borderopacity="1.0"
     inkscape:pageopacity="0.0"
     inkscape:pageshadow="2"
     inkscape:zoom="0.35"
     inkscape:cx="375"
     inkscape:cy="520"
     inkscape:document-units="px"
     inkscape:current-layer="layer1"
     showgrid="false"
     showguides="false"
     fit-margin-top="0"
     fit-margin-left="0"
     fit-margin-right="0"
     fit-margin-bottom="0"
     inkscape:window-width="1920"
     inkscape:window-height="1137"
     inkscape:window-x="-8"
     inkscape:window-y="-8"
     inkscape:window-maximized="1" />
  <metadata
     id="metadata7">
    <rdf:RDF>
      <cc:Work
         rdf:about="">
        <dc:format>image/svg+xml</dc:format>
        <dc:type
           rdf:resource="http://purl.org/dc/dcmitype/StillImage" />
        <dc:title />
      </cc:Work>
    </rdf:RDF>
  </metadata>
  <g
     inkscape:label="Layer 1"
     inkscape:groupmode="layer"
     id="layer1"
     transform="translate(252.85414,-463.79968)">
    <path
       inkscape:connector-curvature="0"
       style="opacity:1;fill:#ffffff;fill-opacity:1;stroke:none;stroke-width:3;stroke-linecap:round;stroke-linejoin:miter;stroke-miterlimit:4;stroke-dasharray:none;stroke-dashoffset:0;stroke-opacity:1"
       d="m -241.92055,419.97156 a 21.467694,18.323608 0 0 0 -2.13867,0.15429 21.467694,18.323608 0 0 0 -17.20312,11.72071 23.162514,22.250095 0 0 0 -12.24024,-4.01172 23.162514,22.250095 0 0 0 -21.6289,12.08203 23.162514,22.250095 0 0 0 -1.76172,15.87304 23.162514,22.250095 0 0 0 -12.63086,20.72266 23.162514,22.250095 0 0 0 19.21679,21.00195 23.162514,22.250095 0 0 0 14.62891,-2.20703 33.89636,27.485415 0 0 0 32.01172,11.46875 33.89636,27.485415 0 0 0 27.32617,-17.41797 28.246968,23.886133 0 0 0 15.52539,-10.79687 28.246968,23.886133 0 0 0 -1.64648,-25.78711 28.246968,23.886133 0 0 0 -18.08203,-9.53125 21.467694,18.323608 0 0 0 -2.40039,-14.61914 21.467694,18.323608 0 0 0 -18.97657,-8.65234 z"
       id="path4150" />
  </g>
</svg>
